<svg xmlns="http://www.w3.org/2000/svg" xmlns:xlink="http://www.w3.org/1999/xlink" width="163" height="223.551" viewBox="0 0 163 223.551">
  <defs>
    <clipPath id="clip-path">
      <rect id="Rectangle_166" data-name="Rectangle 166" width="163" height="163" fill="#51b096"/>
    </clipPath>
  </defs>
  <g id="dental-marketing-logo-mobile" transform="translate(-206 -6762.596)">
    <path id="Path_2782" data-name="Path 2782" d="M1.691,0V-13.49H6.27a6.943,6.943,0,0,1,2.821.532,5.738,5.738,0,0,1,2.014,1.444,6.087,6.087,0,0,1,1.216,2.137,8.209,8.209,0,0,1,.408,2.613,8.045,8.045,0,0,1-.456,2.783,6.038,6.038,0,0,1-1.3,2.128A5.816,5.816,0,0,1,8.939-.484,7.01,7.01,0,0,1,6.27,0ZM11.4-6.764A6.965,6.965,0,0,0,11.058-9a5.046,5.046,0,0,0-1-1.757A4.467,4.467,0,0,0,8.455-11.9a5.488,5.488,0,0,0-2.185-.408H3.021V-1.178H6.27a5.392,5.392,0,0,0,2.214-.428,4.5,4.5,0,0,0,1.606-1.178,5.109,5.109,0,0,0,.978-1.767A7.083,7.083,0,0,0,11.4-6.764ZM24.339-1.178V0H15.276V-13.49h8.892v1.178H16.606v4.864H23.2v1.121H16.606v5.149Zm3.838-9.842V0h-1.33V-13.49h1.026L36.8-2.261v-11.21h1.33V0H36.974Zm22.914-1.292H46.284V0h-1.33V-12.312H40.147V-13.49H51.091Zm4.864-1.178h1.121L62.681,0H61.275L59.527-4.218H53.466L51.737,0H50.312Zm3.268,8.227-2.717-6.669L53.751-5.263ZM64.619,0V-13.49h1.33V-1.178h7.79V0ZM13.642,26V14.923L8.721,23.492H7.942L3.021,14.923V26H1.691V12.51H3.059l5.263,9.234,5.3-9.234h1.349V26Zm8.892-13.49h1.121L29.26,26H27.854l-1.748-4.218H20.045L18.316,26H16.891ZM25.8,20.737l-2.717-6.669L20.33,20.737ZM31.2,26V12.51h5.7a3.5,3.5,0,0,1,1.606.37,4.231,4.231,0,0,1,1.263.969,4.443,4.443,0,0,1,.826,1.358,4.228,4.228,0,0,1,.295,1.539,4.564,4.564,0,0,1-.219,1.416,4.376,4.376,0,0,1-.608,1.216,3.678,3.678,0,0,1-.941.912,3.326,3.326,0,0,1-1.235.5L41.192,26h-1.5l-3.173-4.978h-3.99V26Zm1.33-6.156h4.408a2.258,2.258,0,0,0,1.073-.257,2.561,2.561,0,0,0,.826-.694,3.374,3.374,0,0,0,.532-.988,3.53,3.53,0,0,0,.19-1.159,3.189,3.189,0,0,0-.218-1.168,3.226,3.226,0,0,0-.589-.979,2.811,2.811,0,0,0-.874-.665,2.365,2.365,0,0,0-1.055-.247H32.528ZM43.605,26V12.529h1.33v7.828l7.429-7.847h1.463l-5.51,5.928L54.112,26H52.649l-5.168-6.783-2.546,2.641V26Zm21.28-1.178V26H55.822V12.51h8.892v1.178H57.152v4.864h6.593v1.121H57.152v5.149ZM76.969,13.688H72.162V26h-1.33V13.688H66.025V12.51H76.969ZM78.983,26V12.51h1.33V26Zm6.042-11.02V26h-1.33V12.51h1.026l8.93,11.229V12.529h1.33V26H93.822Zm23.085,9.044a5.709,5.709,0,0,1-4.332,2.071,5.439,5.439,0,0,1-2.518-.589,6.645,6.645,0,0,1-2-1.558,7.349,7.349,0,0,1-1.32-2.194,6.909,6.909,0,0,1-.475-2.517,7.266,7.266,0,0,1,.465-2.584,6.907,6.907,0,0,1,1.3-2.176,6.389,6.389,0,0,1,1.976-1.5,5.564,5.564,0,0,1,2.489-.56,6.979,6.979,0,0,1,1.805.218,5.481,5.481,0,0,1,1.453.608,4.623,4.623,0,0,1,1.1.931,5.777,5.777,0,0,1,.788,1.188l-1.026.684A4.366,4.366,0,0,0,106.1,14.2a4.9,4.9,0,0,0-2.413-.589,4.277,4.277,0,0,0-2.023.475,4.874,4.874,0,0,0-1.539,1.263,5.779,5.779,0,0,0-.979,1.805,6.54,6.54,0,0,0-.342,2.1,6.051,6.051,0,0,0,.39,2.166,5.739,5.739,0,0,0,1.074,1.8,5.235,5.235,0,0,0,1.605,1.226,4.457,4.457,0,0,0,2,.456,4.782,4.782,0,0,0,2.213-.542,6.564,6.564,0,0,0,2.024-1.719V20.4h-3V19.369h4.123V26H108.11Z" transform="translate(206 6960.052)" fill="#fff"/>
    <g id="Group_687" data-name="Group 687" transform="translate(206 6762.596)">
      <g id="Group_61" data-name="Group 61" transform="translate(0 0)" clip-path="url(#clip-path)">
        <path id="Path_41" data-name="Path 41" d="M131.194,163H0V31.8A31.8,31.8,0,0,1,31.8,0h99.389A31.806,31.806,0,0,1,163,31.8V131.2a31.8,31.8,0,0,1-31.8,31.8m-74.71-41.146h.407v34.069H70.583V97.738H51.841l-12.96,38.875h-.243L25.677,97.738H7.014v58.183h10.2a3.579,3.579,0,0,0,3.578-3.578V121.852H21.2a56.523,56.523,0,0,0,2.2,7.335l9.289,26.734H44.993l9.29-26.734a72.237,72.237,0,0,0,2.2-7.333Z" transform="translate(0 0.001)" fill="#51b096"/>
      </g>
    </g>
  </g>
</svg>
