<svg xmlns="http://www.w3.org/2000/svg" xmlns:xlink="http://www.w3.org/1999/xlink" width="175.115" height="48.297" viewBox="0 0 175.115 48.297">
  <defs>
    <clipPath id="clip-path">
      <rect id="Rectangle_166" data-name="Rectangle 166" width="48.298" height="48.298" fill="#51b096"/>
    </clipPath>
  </defs>
  <g id="dental-marketing" transform="translate(-1700.102 -6421)">
    <path id="Path_2781" data-name="Path 2781" d="M1.02,0V-8.52H3.972a4.472,4.472,0,0,1,1.794.336,3.659,3.659,0,0,1,1.29.912,3.8,3.8,0,0,1,.774,1.35,5.184,5.184,0,0,1,.258,1.65A5.081,5.081,0,0,1,7.8-2.514,3.769,3.769,0,0,1,6.972-1.17a3.71,3.71,0,0,1-1.3.864A4.52,4.52,0,0,1,3.972,0ZM7-4.272A4.249,4.249,0,0,0,6.8-5.6,2.845,2.845,0,0,0,6.21-6.636a2.744,2.744,0,0,0-.954-.678A3.183,3.183,0,0,0,3.972-7.56H2.1v6.6H3.972a3.19,3.19,0,0,0,1.3-.252,2.609,2.609,0,0,0,.948-.7A3.07,3.07,0,0,0,6.8-2.958,4.208,4.208,0,0,0,7-4.272ZM15.4-.96V0H9.612V-8.52h5.676v.96h-4.6V-4.8h4v.9h-4V-.96ZM17.952-6.5V0h-1.08V-8.52h.84l5.28,6.636V-8.508h1.08V0H23.16Zm14.3-1.056h-2.94V0h-1.08V-7.56H25.3v-.96h6.96Zm3.012-.96h.912L39.66,0H38.508L37.5-2.5H33.924l-1,2.5H31.776ZM37.26-3.336,35.724-7.272,34.14-3.336ZM40.8,0V-8.52h1.08V-.96h4.752V0ZM57.852,0V-6.588L55.02-1.536h-.612L51.564-6.588V0h-1.08V-8.52h1.14l3.084,5.532L57.8-8.52h1.128V0Zm5.712-8.52h.912L67.956,0H66.8L65.8-2.5H62.22l-1,2.5H60.072Zm1.992,5.184L64.02-7.272,62.436-3.336ZM69.1,0V-8.52h3.648a2.312,2.312,0,0,1,1.038.234,2.611,2.611,0,0,1,.816.624,2.978,2.978,0,0,1,.534.876,2.673,2.673,0,0,1,.192.99,2.93,2.93,0,0,1-.126.858,2.655,2.655,0,0,1-.36.75,2.41,2.41,0,0,1-.564.576,2.2,2.2,0,0,1-.738.348L75.6,0H74.376L72.432-3.06H70.176V0Zm1.08-4.02h2.58a1.267,1.267,0,0,0,.606-.144,1.441,1.441,0,0,0,.462-.39,1.887,1.887,0,0,0,.3-.57,2.111,2.111,0,0,0,.108-.672,1.824,1.824,0,0,0-.126-.678,1.99,1.99,0,0,0-.336-.564,1.521,1.521,0,0,0-.492-.384,1.334,1.334,0,0,0-.594-.138H70.176ZM76.98,0V-8.508h1.08v4.7L82.452-8.52h1.164L80.2-4.764,83.808,0H82.632l-3.1-4.14L78.06-2.6V0ZM90.588-.96V0H84.8V-8.52H90.48v.96h-4.6V-4.8h4v.9h-4V-.96Zm7.62-6.6h-2.94V0h-1.08V-7.56h-2.94v-.96h6.96ZM99.432,0V-8.52h1.08V0Zm4.2-6.5V0h-1.08V-8.52h.84l5.28,6.636V-8.508h1.08V0h-.912ZM117.8-1.152A3.452,3.452,0,0,1,115.212.06a3.41,3.41,0,0,1-1.578-.372,4.167,4.167,0,0,1-1.254-.978,4.708,4.708,0,0,1-.834-1.386,4.366,4.366,0,0,1-.306-1.608,4.492,4.492,0,0,1,.3-1.638,4.471,4.471,0,0,1,.828-1.368,3.917,3.917,0,0,1,1.26-.942,3.642,3.642,0,0,1,1.584-.348,3.681,3.681,0,0,1,2.034.516,3.421,3.421,0,0,1,1.218,1.344l-.828.576a2.587,2.587,0,0,0-1.02-1.1,2.848,2.848,0,0,0-1.428-.36,2.456,2.456,0,0,0-1.176.282,2.893,2.893,0,0,0-.9.744,3.431,3.431,0,0,0-.576,1.068,3.9,3.9,0,0,0-.2,1.254,3.633,3.633,0,0,0,.228,1.29,3.54,3.54,0,0,0,.624,1.068,2.9,2.9,0,0,0,.936.726,2.641,2.641,0,0,0,1.176.264A3.23,3.23,0,0,0,117.8-2.256V-3.432h-1.836v-.816h2.748V0H117.8Z" transform="translate(1756.5 6449)" fill="#fff"/>
    <g id="Group_675" data-name="Group 675" transform="translate(1700.102 6421)">
      <g id="Group_61" data-name="Group 61" transform="translate(0 0)" clip-path="url(#clip-path)">
        <path id="Path_41" data-name="Path 41" d="M38.874,48.3H0V9.424A9.423,9.423,0,0,1,9.424,0h29.45A9.424,9.424,0,0,1,48.3,9.424v29.45A9.424,9.424,0,0,1,38.874,48.3M16.737,36.106h.121V46.2h4.057V28.96H15.361l-3.84,11.519h-.072L7.608,28.96H2.078V46.2H5.1a1.06,1.06,0,0,0,1.06-1.06V36.106h.121a16.748,16.748,0,0,0,.652,2.173L9.685,46.2h3.647l2.753-7.922a21.4,21.4,0,0,0,.652-2.173Z" transform="translate(0 0)" fill="#51b096"/>
      </g>
    </g>
  </g>
</svg>
