<svg width="41" height="41" viewBox="0 0 41 41" fill="none" xmlns="http://www.w3.org/2000/svg">
<path d="M0.5 20.5C0.5 9.45431 9.45431 0.5 20.5 0.5C31.5457 0.5 40.5 9.45431 40.5 20.5C40.5 31.5457 31.5457 40.5 20.5 40.5C9.45431 40.5 0.5 31.5457 0.5 20.5Z" fill="white"/>
<g clip-path="url(#clip0_6493_9495)">
<g clip-path="url(#clip1_6493_9495)">
<path d="M26.1775 18.8333C26.435 18.8333 26.6783 18.7142 26.8358 18.5108C26.9933 18.3075 27.0483 18.0425 26.985 17.7933C26.7258 16.7792 26.1975 15.8525 25.4575 15.1125L22.5533 12.2083C21.4517 11.1067 19.9867 10.5 18.4283 10.5H14.6658C12.3692 10.5 10.5 12.3692 10.5 14.6667V26.3333C10.5 28.6308 12.3692 30.5 14.6667 30.5H17.1667C17.6267 30.5 18 30.1267 18 29.6667C18 29.2067 17.6267 28.8333 17.1667 28.8333H14.6667C13.2883 28.8333 12.1667 27.7117 12.1667 26.3333V14.6667C12.1667 13.2883 13.2883 12.1667 14.6667 12.1667H18.4292C18.565 12.1667 18.7 12.1733 18.8333 12.1858V16.3333C18.8333 17.7117 19.955 18.8333 21.3333 18.8333H26.1775ZM20.5 16.3333V12.7158C20.8158 12.8975 21.11 13.1225 21.375 13.3875L24.2792 16.2917C24.5408 16.5533 24.765 16.8483 24.9483 17.1667H21.3333C20.8742 17.1667 20.5 16.7925 20.5 16.3333ZM29.7683 20.3992C28.8233 19.4542 27.1767 19.4542 26.2325 20.3992L20.6433 25.9883C20.0142 26.6175 19.6667 27.455 19.6667 28.3458V29.6675C19.6667 30.1275 20.04 30.5008 20.5 30.5008H21.8217C22.7125 30.5008 23.5492 30.1533 24.1783 29.5242L29.7675 23.935C30.24 23.4625 30.5 22.835 30.5 22.1667C30.5 21.4983 30.24 20.8708 29.7683 20.3992ZM28.5892 22.7558L22.9992 28.345C22.685 28.66 22.2667 28.8333 21.8208 28.8333H21.3325V28.345C21.3325 27.9 21.5058 27.4817 21.8208 27.1667L27.4108 21.5775C27.725 21.2625 28.2742 21.2625 28.5892 21.5775C28.7467 21.7342 28.8333 21.9433 28.8333 22.1667C28.8333 22.39 28.7467 22.5983 28.5892 22.7558Z" fill="#A190CC"/>
</g>
</g>
<defs>
<clipPath id="clip0_6493_9495">
<rect width="20" height="20" fill="white" transform="translate(10.5 10.5)"/>
</clipPath>
<clipPath id="clip1_6493_9495">
<rect width="20" height="20" fill="white" transform="translate(10.5 10.5)"/>
</clipPath>
</defs>
</svg>
