<svg width="36" height="36" viewBox="0 0 36 36" fill="none" xmlns="http://www.w3.org/2000/svg">
<path d="M0 18C0 8.05888 8.05888 0 18 0C27.9411 0 36 8.05888 36 18C36 27.9411 27.9411 36 18 36C8.05888 36 0 27.9411 0 18Z" fill="white"/>
<g clip-path="url(#clip0_6321_5959)">
<g clip-path="url(#clip1_6321_5959)">
<path d="M22.6667 11.3333H18.3133C18.2133 11.3333 18.1067 11.3067 18.0133 11.26L15.9133 10.2133C15.64 10.0733 15.3267 10 15.02 10H13.3333C11.4933 10 10 11.4933 10 13.3333V21.3333C10 23.1733 11.4933 24.6667 13.3333 24.6667H16.6667C17.0333 24.6667 17.3333 24.3667 17.3333 24C17.3333 23.6333 17.0333 23.3333 16.6667 23.3333H13.3333C12.2333 23.3333 11.3333 22.4333 11.3333 21.3333V15.3333H24.6667V16.6667C24.6667 17.0333 24.9667 17.3333 25.3333 17.3333C25.7 17.3333 26 17.0333 26 16.6667V14.6667C26 12.8267 24.5067 11.3333 22.6667 11.3333ZM11.3333 13.3333C11.3333 12.2333 12.2333 11.3333 13.3333 11.3333H15.02C15.12 11.3333 15.2267 11.36 15.32 11.4067L17.4267 12.46C17.7 12.6 18.0133 12.6733 18.32 12.6733H22.6733C23.54 12.6733 24.2867 13.2333 24.56 14.0067H11.3333V13.34V13.3333ZM23.6667 18.6667C23.0333 18.6667 22.44 18.9467 22 19.4C21.5667 18.9467 20.9733 18.6667 20.3333 18.6667C19.0467 18.6667 18 19.7867 18 21.1667C18 23.0667 20.3467 25.0933 21.0667 25.6733C21.34 25.8933 21.6667 26 22 26C22.3333 26 22.6667 25.8933 22.9333 25.6733C23.6533 25.0933 26 23.0667 26 21.1667C26 19.7867 24.9533 18.6667 23.6667 18.6667ZM22.1 24.6333C22.04 24.68 21.96 24.68 21.9 24.6333C20.6667 23.64 19.3333 22.1333 19.3333 21.1667C19.3333 20.5267 19.78 20 20.3333 20C20.8133 20 21.2467 20.4 21.34 20.9333C21.3933 21.2533 21.6733 21.4867 21.9933 21.4867C22.3133 21.4867 22.5933 21.2533 22.6467 20.9333C22.74 20.4 23.18 20 23.66 20C24.2133 20 24.66 20.5267 24.66 21.1667C24.66 22.1333 23.3267 23.64 22.0933 24.6333H22.1Z" fill="#A190CC"/>
</g>
</g>
<defs>
<clipPath id="clip0_6321_5959">
<rect width="16" height="16" fill="white" transform="translate(10 10)"/>
</clipPath>
<clipPath id="clip1_6321_5959">
<rect width="16" height="16" fill="white" transform="translate(10 10)"/>
</clipPath>
</defs>
</svg>
