<svg width="36" height="36" viewBox="0 0 36 36" fill="none" xmlns="http://www.w3.org/2000/svg">
<path d="M0 18C0 8.05888 8.05888 0 18 0C27.9411 0 36 8.05888 36 18C36 27.9411 27.9411 36 18 36C8.05888 36 0 27.9411 0 18Z" fill="white"/>
<g clip-path="url(#clip0_6613_697)">
<g clip-path="url(#clip1_6613_697)">
<path d="M22.4771 18H19.3351C18.9814 18 18.6423 17.8595 18.3923 17.6095C18.1422 17.3594 18.0017 17.0203 18.0017 16.6667V13.516C18.0026 13.2093 17.933 12.9065 17.7982 12.6311C17.6634 12.3556 17.4671 12.1148 17.2244 11.9273C16.9944 11.7452 16.7257 11.6184 16.4389 11.5566C16.1521 11.4949 15.8549 11.4999 15.5704 11.5713C13.9542 11.9725 12.5233 12.9134 11.5144 14.2382C10.5055 15.5631 9.97898 17.1926 10.022 18.8574C10.065 20.5221 10.6749 22.1223 11.7508 23.3933C12.8267 24.6643 14.3043 25.5301 15.9391 25.8473C17.7771 26.1991 19.6802 25.8349 21.2584 24.8293C22.8367 23.8236 23.9708 22.2526 24.4284 20.438C24.5 20.1531 24.5053 19.8555 24.4437 19.5683C24.382 19.281 24.2553 19.0118 24.0731 18.7813C23.8834 18.539 23.6412 18.3427 23.3648 18.2074C23.0883 18.0721 22.7848 18.0012 22.4771 18ZM23.1357 20.112C22.8805 21.1399 22.3568 22.0816 21.6182 22.8407C20.8796 23.5998 19.9526 24.1491 18.9321 24.4324C17.9115 24.7157 16.8341 24.7228 15.8099 24.4531C14.7857 24.1834 13.8515 23.6464 13.1029 22.8972C12.3543 22.148 11.8181 21.2134 11.5492 20.1889C11.2803 19.1645 11.2884 18.087 11.5725 17.0667C11.8567 16.0464 12.4067 15.1199 13.1665 14.382C13.9262 13.644 14.8683 13.1211 15.8964 12.8667C15.9844 12.8447 16.0762 12.8436 16.1647 12.8635C16.2531 12.8834 16.3357 12.9238 16.4057 12.9813C16.4885 13.0444 16.5555 13.1257 16.6018 13.2189C16.648 13.312 16.6722 13.4146 16.6724 13.5187V16.6667C16.6724 17.3739 16.9533 18.0522 17.4534 18.5523C17.9535 19.0524 18.6318 19.3333 19.3391 19.3333H22.4804C22.5853 19.3338 22.6888 19.358 22.783 19.4042C22.8773 19.4503 22.9598 19.5173 23.0244 19.6C23.0811 19.671 23.1205 19.7542 23.1397 19.843C23.1589 19.9318 23.158 20.0239 23.1357 20.112Z" fill="#A190CC"/>
<path d="M25.769 14.964C25.4621 13.8357 24.8658 12.807 24.0392 11.9799C23.2127 11.1527 22.1845 10.5557 21.0563 10.248C20.9381 10.2162 20.8161 10.2001 20.6937 10.2C20.5175 10.1983 20.3428 10.2316 20.1795 10.2978C20.0163 10.3641 19.8678 10.4621 19.7426 10.586C19.6175 10.71 19.5181 10.8576 19.4503 11.0202C19.3826 11.1828 19.3476 11.3572 19.3477 11.5333V14.6667C19.3477 15.1971 19.5584 15.7058 19.9334 16.0809C20.3085 16.456 20.8172 16.6667 21.3477 16.6667H24.4937C24.6994 16.6647 24.902 16.6153 25.0856 16.5223C25.2692 16.4294 25.4288 16.2953 25.5522 16.1306C25.6756 15.9659 25.7593 15.775 25.7969 15.5726C25.8345 15.3703 25.825 15.162 25.769 14.964ZM24.1037 15.3333H21.345C21.1682 15.3333 20.9986 15.2631 20.8736 15.1381C20.7486 15.0131 20.6783 14.8435 20.6783 14.6667L20.673 11.538C20.6779 11.5345 20.6836 11.5324 20.6897 11.532H20.707C21.6151 11.7794 22.4424 12.2606 23.1063 12.9276C23.7703 13.5947 24.2478 14.4242 24.491 15.3333H24.1037Z" fill="#A190CC"/>
</g>
</g>
<defs>
<clipPath id="clip0_6613_697">
<rect width="16" height="16" fill="white" transform="translate(10 10)"/>
</clipPath>
<clipPath id="clip1_6613_697">
<rect width="16" height="16" fill="white" transform="translate(10 10)"/>
</clipPath>
</defs>
</svg>
