<svg width="36" height="36" viewBox="0 0 36 36" fill="none" xmlns="http://www.w3.org/2000/svg">
<path d="M0 18C0 8.05888 8.05888 0 18 0C27.9411 0 36 8.05888 36 18C36 27.9411 27.9411 36 18 36C8.05888 36 0 27.9411 0 18Z" fill="white"/>
<g clip-path="url(#clip0_6613_3653)">
<g clip-path="url(#clip1_6613_3653)">
<path d="M25.414 16.046L20.3573 10.9887C19.7315 10.3647 18.8838 10.0143 18 10.0143C17.1162 10.0143 16.2685 10.3647 15.6427 10.9887L10.586 16.046C10.3996 16.2312 10.2519 16.4516 10.1513 16.6943C10.0507 16.937 9.99926 17.1973 10 17.46V24.0047C10 24.5351 10.2107 25.0438 10.5858 25.4189C10.9609 25.794 11.4696 26.0047 12 26.0047H24C24.5304 26.0047 25.0391 25.794 25.4142 25.4189C25.7893 25.0438 26 24.5351 26 24.0047V17.46C26.0008 17.1973 25.9493 16.937 25.8488 16.6943C25.7482 16.4516 25.6004 16.2312 25.414 16.046ZM20 24.6714H16V22.0487C16 21.5183 16.2107 21.0096 16.5858 20.6345C16.9609 20.2594 17.4696 20.0487 18 20.0487C18.5304 20.0487 19.0391 20.2594 19.4142 20.6345C19.7893 21.0096 20 21.5183 20 22.0487V24.6714ZM24.6667 24.0047C24.6667 24.1815 24.5964 24.3511 24.4714 24.4761C24.3464 24.6011 24.1768 24.6714 24 24.6714H21.3333V22.0487C21.3333 21.1646 20.9822 20.3168 20.357 19.6917C19.7319 19.0666 18.8841 18.7154 18 18.7154C17.116 18.7154 16.2681 19.0666 15.643 19.6917C15.0179 20.3168 14.6667 21.1646 14.6667 22.0487V24.6714H12C11.8232 24.6714 11.6536 24.6011 11.5286 24.4761C11.4036 24.3511 11.3333 24.1815 11.3333 24.0047V17.46C11.334 17.2834 11.4041 17.114 11.5287 16.9887L16.5853 11.9334C16.9611 11.5593 17.4698 11.3493 18 11.3493C18.5302 11.3493 19.0389 11.5593 19.4147 11.9334L24.4713 16.9907C24.5954 17.1155 24.6655 17.284 24.6667 17.46V24.0047Z" fill="#A190CC"/>
</g>
</g>
<defs>
<clipPath id="clip0_6613_3653">
<rect width="16" height="16" fill="white" transform="translate(10 10)"/>
</clipPath>
<clipPath id="clip1_6613_3653">
<rect width="16" height="16" fill="white" transform="translate(10 10)"/>
</clipPath>
</defs>
</svg>
