<svg width="30" height="30" viewBox="0 0 30 30" fill="none" xmlns="http://www.w3.org/2000/svg">
<path d="M0 15C0 6.71573 6.71573 0 15 0V0C23.2843 0 30 6.71573 30 15V15C30 23.2843 23.2843 30 15 30V30C6.71573 30 0 23.2843 0 15V15Z" fill="#A190CC"/>
<g clip-path="url(#clip0_6289_9610)">
<g clip-path="url(#clip1_6289_9610)">
<path d="M21.5688 17.45L20.0521 11.9836C19.7283 10.8142 19.0226 9.78683 18.0474 9.06487C17.0722 8.3429 15.8835 7.96787 14.6706 7.99946C13.4576 8.03106 12.2901 8.46746 11.3538 9.23921C10.4175 10.011 9.76627 11.0737 9.50372 12.2583L8.33063 17.5375C8.27387 17.7933 8.27525 18.0585 8.33468 18.3136C8.39411 18.5688 8.51007 18.8074 8.674 19.0117C8.83793 19.2161 9.04566 19.381 9.28184 19.4944C9.51803 19.6077 9.77665 19.6666 10.0386 19.6667H12.1427C12.2766 20.326 12.6343 20.9188 13.1552 21.3446C13.6762 21.7703 14.3283 22.0029 15.001 22.0029C15.6738 22.0029 16.3259 21.7703 16.8469 21.3446C17.3678 20.9188 17.7255 20.326 17.8594 19.6667H19.8836C20.1531 19.6665 20.419 19.6041 20.6605 19.4844C20.902 19.3646 21.1125 19.1906 21.2757 18.976C21.4389 18.7615 21.5503 18.5121 21.6012 18.2474C21.6522 17.9827 21.6407 17.7098 21.5688 17.45ZM15.001 20.8333C14.6404 20.8318 14.289 20.7189 13.995 20.5101C13.7009 20.3013 13.4786 20.0067 13.3584 19.6667H16.6437C16.5235 20.0067 16.3012 20.3013 16.0071 20.5101C15.7131 20.7189 15.3617 20.8318 15.001 20.8333ZM20.3473 18.2696C20.2929 18.3417 20.2223 18.4001 20.1413 18.4402C20.0603 18.4802 19.971 18.5007 19.8806 18.5H10.0386C9.95129 18.5 9.86506 18.4804 9.78631 18.4426C9.70756 18.4048 9.63831 18.3498 9.58366 18.2816C9.52902 18.2135 9.49037 18.1339 9.47058 18.0489C9.45078 17.9638 9.45034 17.8753 9.4693 17.7901L10.6424 12.5109C10.8491 11.5812 11.3606 10.7473 12.0957 10.1417C12.8308 9.53609 13.7472 9.1936 14.6993 9.16866C15.6514 9.14371 16.5845 9.43775 17.3503 10.004C18.1161 10.5703 18.6706 11.3763 18.9257 12.2939L20.4424 17.7603C20.4671 17.8468 20.4714 17.9378 20.4549 18.0262C20.4384 18.1146 20.4016 18.1979 20.3473 18.2696Z" fill="white"/>
</g>
</g>
<defs>
<clipPath id="clip0_6289_9610">
<rect width="14" height="14" fill="white" transform="translate(8 8)"/>
</clipPath>
<clipPath id="clip1_6289_9610">
<rect width="14" height="14" fill="white" transform="translate(8 8)"/>
</clipPath>
</defs>
</svg>
